<svg width="20" height="20" viewBox="0 0 20 20" fill="none" xmlns="http://www.w3.org/2000/svg">
<path d="M9.02 5.82H9.04C9.12 5.79333 9.17333 5.76667 9.2 5.74C9.38667 5.66 9.48 5.54667 9.48 5.4V4.7C9.48 4.60667 9.50667 4.53333 9.56 4.48C9.62667 4.41333 9.70667 4.38 9.8 4.38H10.5C10.58 4.38 10.6467 4.41333 10.7 4.48C10.7667 4.53333 10.8 4.60667 10.8 4.7V5.34C10.8 5.42 10.8267 5.5 10.88 5.58C10.9467 5.64667 11.0267 5.7 11.12 5.74L11.28 5.82L11.44 5.9C11.64 6.00667 11.7733 6.08667 11.84 6.14C11.9067 6.19333 11.9733 6.25333 12.04 6.32C12.1733 6.44 12.3067 6.60667 12.44 6.82C12.4933 6.9 12.54 6.98667 12.58 7.08C12.6867 7.32 12.7533 7.52 12.78 7.68C12.82 7.82667 12.8467 7.98 12.86 8.14C12.8733 8.22 12.8467 8.29333 12.78 8.36C12.7267 8.42667 12.6533 8.46 12.56 8.46H11.56C11.48 8.46 11.4067 8.43333 11.34 8.38C11.2867 8.31333 11.2533 8.23333 11.24 8.14C11.24 7.98 11.2 7.81333 11.12 7.64C11.0533 7.50667 10.9467 7.38667 10.8 7.28C10.6667 7.16 10.54 7.09333 10.42 7.08C10.3133 7.05333 10.1467 7.04667 9.92 7.06C9.78667 7.06 9.64667 7.08667 9.5 7.14C9.38 7.16667 9.28 7.23333 9.2 7.34C9.09333 7.5 9.02667 7.63333 9 7.74C8.98667 7.84667 8.98 7.97333 8.98 8.12V8.14C8.99333 8.27333 9.03333 8.40667 9.1 8.54C9.18 8.66 9.3 8.78667 9.46 8.92C9.55333 9 9.74 9.09333 10.02 9.2L10.46 9.36C10.7667 9.48 10.9933 9.57333 11.14 9.64C11.3267 9.73333 11.5133 9.84 11.7 9.96C12.1267 10.2667 12.4267 10.56 12.6 10.84C12.72 11.0133 12.8067 11.2067 12.86 11.42C12.9 11.5133 12.9267 11.6267 12.94 11.76C12.9533 11.96 12.9533 12.1667 12.94 12.38C12.9267 12.5133 12.9 12.6267 12.86 12.72C12.82 12.88 12.7267 13.0667 12.58 13.28C12.3267 13.64 12.06 13.9067 11.78 14.08C11.6333 14.16 11.44 14.2467 11.2 14.34C11.1067 14.38 11.0333 14.4067 10.98 14.42C10.9 14.4333 10.8267 14.48 10.76 14.56C10.7067 14.6267 10.68 14.7067 10.68 14.8V15.3C10.68 15.3933 10.6467 15.4733 10.58 15.54C10.5267 15.5933 10.4533 15.62 10.36 15.62H9.68C9.58667 15.62 9.50667 15.5933 9.44 15.54C9.38667 15.4733 9.36 15.3933 9.36 15.3V14.8C9.36 14.7067 9.32667 14.6333 9.26 14.58C9.20667 14.5133 9.13333 14.4667 9.04 14.44L8.9 14.4C8.63333 14.2933 8.44 14.2067 8.32 14.14C8.24 14.1 8.14667 14.04 8.04 13.96C7.81333 13.7867 7.66 13.6533 7.58 13.56C7.5 13.4533 7.42667 13.3467 7.36 13.24C7.25333 13.0267 7.17333 12.8267 7.12 12.64C7.08 12.4533 7.06 12.26 7.06 12.06C7.04667 11.9667 7.06667 11.8933 7.12 11.84C7.18667 11.7733 7.26667 11.74 7.36 11.74H8.36C8.45333 11.74 8.52667 11.7733 8.58 11.84C8.64667 11.8933 8.68667 11.9667 8.7 12.06L8.72 12.14C8.81333 12.4333 8.93333 12.66 9.08 12.82C9.24 12.9933 9.46 13.1133 9.74 13.18C10.1533 13.1933 10.44 13.1733 10.6 13.12C10.8533 13.0267 11.06 12.82 11.22 12.5C11.26 12.42 11.2667 12.2933 11.24 12.12V12.04C11.24 11.9067 11.2 11.76 11.12 11.6C10.9333 11.2667 10.6267 11.04 10.2 10.92L10.16 10.88C10.0933 10.8533 9.96667 10.8067 9.78 10.74L9.56 10.66L9.08 10.46C8.85333 10.3667 8.66667 10.2667 8.52 10.16L8.22 9.94C8.03333 9.80667 7.88 9.66667 7.76 9.52L7.62 9.34C7.5 9.15333 7.41333 8.96 7.36 8.76C7.33333 8.62667 7.31333 8.49333 7.3 8.36C7.27333 8.14667 7.27333 7.94 7.3 7.74C7.31333 7.63333 7.33333 7.54 7.36 7.46C7.4 7.28667 7.48667 7.09333 7.62 6.88L7.76 6.7C7.89333 6.52667 8.04 6.38 8.2 6.26C8.30667 6.18 8.38667 6.12667 8.44 6.1C8.62667 5.98 8.82 5.88667 9.02 5.82Z" fill="#327E36"/>
</svg>
